<?xml version="1.0" encoding="UTF-8"?>
<svg version="1.1" xmlns="http://www.w3.org/2000/svg" width="1920" height="1080">
<path d="M0 0 C2.60744574 1.31740824 3.7597507 2.83965218 5.50449371 5.1849575 C6.18739818 6.08523265 6.87030264 6.98550779 7.57390118 7.913064 C8.31846223 8.90839555 9.06302328 9.90372709 9.83014679 10.9292202 C11.49209351 13.0935894 13.15756394 15.25441339 14.83171844 17.40927696 C15.2747846 17.97974575 15.71785076 18.55021454 16.17434317 19.13797027 C25.68481068 31.32165951 35.82588142 42.98777145 46.12262726 54.50929832 C46.68922703 55.14460488 47.25582681 55.77991143 47.83959627 56.4344697 C77.26419339 89.30736689 104.96059057 112.63873714 150.37653351 115.33351707 C164.50212962 116.10566435 178.56115626 115.85367231 192.68512726 115.19679832 C193.99721271 115.13773119 193.99721271 115.13773119 195.33580494 115.07747078 C218.00288068 114.03684466 240.50934151 112.03380592 262.99762726 109.00929832 C262.85602739 110.05048002 262.85602739 110.05048002 262.71156693 111.11269569 C259.68703768 133.76573814 257.78904846 156.43051043 256.74762726 179.25929832 C256.7066048 180.12873353 256.66558233 180.99816874 256.62331676 181.89395046 C254.52808398 227.69641115 258.14328226 264.19610391 289.92290306 299.09325409 C298.82359968 308.72686419 308.33360647 317.66458734 318.12262726 326.38429832 C318.76832861 326.96027071 319.41402996 327.5362431 320.07929802 328.12966919 C331.66016863 338.43213325 343.42283092 348.52010742 355.67179108 358.02275658 C356.23265647 358.45923437 356.79352187 358.89571216 357.37138319 359.34541655 C359.99004122 361.37888094 362.62031996 363.38849237 365.27923965 365.36956215 C366.18517994 366.06088108 367.09112022 366.75220001 368.02451324 367.464468 C369.21859141 368.35355386 369.21859141 368.35355386 370.43679237 369.26060104 C371.99762726 371.00929832 371.99762726 371.00929832 372.00692558 373.01167107 C370.68951734 375.61911681 369.16727341 376.77142177 366.82196808 378.51616478 C365.92169293 379.19906924 365.02141779 379.88197371 364.09386158 380.58557224 C363.09853004 381.3301333 362.10319849 382.07469435 361.07770538 382.84181786 C358.91333619 384.50376458 356.75251219 386.169235 354.59764862 387.84338951 C354.02717983 388.28645567 353.45671104 388.72952183 352.86895531 389.18601424 C340.68526607 398.69648175 329.01915413 408.83755249 317.49762726 419.13429832 C316.8623207 419.7008981 316.22701415 420.26749787 315.57245588 420.85126734 C282.6995587 450.27586445 259.36818844 477.97226163 256.67340851 523.38820457 C255.90126124 537.51380069 256.15325328 551.57282733 256.81012726 565.69679832 C256.84950535 566.57152196 256.88888344 567.44624559 256.9294548 568.34747601 C257.97008092 591.01455175 259.97311966 613.52101257 262.99762726 636.00929832 C261.95644556 635.86769846 261.95644556 635.86769846 260.89422989 635.72323799 C238.24118744 632.69870875 215.57641516 630.80071952 192.74762726 629.75929832 C191.87819205 629.71827586 191.00875685 629.6772534 190.11297512 629.63498783 C144.31051443 627.53975505 107.81082167 631.15495332 72.91367149 662.93457413 C63.28006139 671.83527074 54.34233825 681.34527754 45.62262726 691.13429832 C45.04665487 691.77999968 44.47068249 692.42570103 43.87725639 693.09096909 C33.57479233 704.6718397 23.48681817 716.43450198 13.98416901 728.68346214 C13.54769122 729.24432754 13.11121343 729.80519294 12.66150904 730.38305426 C10.62804464 733.00171229 8.61843321 735.63199103 6.63736343 738.29091072 C5.9460445 739.19685101 5.25472557 740.10279129 4.54245758 741.03618431 C3.65337173 742.23026248 3.65337173 742.23026248 2.74632454 743.44846344 C0.99762726 745.00929832 0.99762726 745.00929832 -1.00474548 745.01859665 C-3.61219122 743.70118841 -4.76449619 742.17894447 -6.5092392 739.83363914 C-7.19214366 738.933364 -7.87504812 738.03308886 -8.57864666 737.10553265 C-9.32320771 736.1102011 -10.06776876 735.11486956 -10.83489227 734.08937645 C-12.49683899 731.92500725 -14.16230942 729.76418326 -15.83646393 727.60931969 C-16.27953009 727.0388509 -16.72259625 726.4683821 -17.17908865 725.88062638 C-26.68955617 713.69693713 -36.83062691 702.0308252 -47.12737274 690.50929832 C-47.69397252 689.87399177 -48.26057229 689.23868522 -48.84434175 688.58412695 C-78.26893887 655.71122976 -105.96533605 632.37985951 -151.38127899 629.68507957 C-165.50687511 628.9129323 -179.56590174 629.16492434 -193.68987274 629.82179832 C-194.56459638 629.86117641 -195.43932001 629.9005545 -196.34055042 629.94112587 C-219.00762616 630.98175199 -241.51408699 632.98479073 -264.00237274 636.00929832 C-263.90797283 635.31517719 -263.81357292 634.62105606 -263.71631241 633.90590096 C-260.69178317 611.25285851 -258.79379394 588.58808622 -257.75237274 565.75929832 C-257.69083905 564.45514552 -257.69083905 564.45514552 -257.62806225 563.12464619 C-255.53282947 517.3221855 -259.14802774 480.82249274 -290.92764854 445.92534256 C-299.82834516 436.29173246 -309.33835195 427.35400931 -319.12737274 418.63429832 C-320.09592477 417.77033975 -320.09592477 417.77033975 -321.0840435 416.88892746 C-332.66491412 406.5864634 -344.4275764 396.49848923 -356.67653656 386.99584007 C-357.51783466 386.34112339 -357.51783466 386.34112339 -358.37612867 385.6731801 C-360.9947867 383.63971571 -363.62506545 381.63010428 -366.28398514 379.6490345 C-367.18992542 378.95771557 -368.09586571 378.26639664 -369.02925873 377.55412865 C-370.2233369 376.66504279 -370.2233369 376.66504279 -371.44153786 375.75799561 C-373.00237274 374.00929832 -373.00237274 374.00929832 -373.01167107 372.00692558 C-371.69426282 369.39947984 -370.17201889 368.24717488 -367.82671356 366.50243187 C-366.92643842 365.81952741 -366.02616327 365.13662294 -365.09860706 364.43302441 C-364.10327552 363.68846335 -363.10794397 362.9439023 -362.08245087 362.17677879 C-359.91808167 360.51483207 -357.75725767 358.84936164 -355.6023941 357.17520714 C-355.03192531 356.73214098 -354.46145652 356.28907482 -353.8737008 355.83258241 C-341.69001155 346.3221149 -330.02389962 336.18104416 -318.50237274 325.88429832 C-317.86706619 325.31769855 -317.23175963 324.75109878 -316.57720137 324.16732931 C-283.70430418 294.7427322 -260.37293393 267.04633502 -257.67815399 221.63039207 C-256.90600672 207.50479596 -257.15799876 193.44576932 -257.81487274 179.32179832 C-257.87393988 178.00971287 -257.87393988 178.00971287 -257.93420029 176.67112064 C-258.97482641 154.0040449 -260.97786514 131.49758408 -264.00237274 109.00929832 C-263.30825161 109.10369823 -262.61413048 109.19809814 -261.89897537 109.29535866 C-239.24593293 112.3198879 -216.58116064 114.21787713 -193.75237274 115.25929832 C-192.88293754 115.30032079 -192.01350233 115.34134325 -191.1177206 115.38360882 C-145.31525991 117.4788416 -108.81556716 113.86364333 -73.91841698 82.08402252 C-64.28480688 73.18332591 -55.34708373 63.67331911 -46.62737274 53.88429832 C-45.76341416 52.9157463 -45.76341416 52.9157463 -44.88200188 51.92762756 C-34.57953782 40.34675695 -24.49156365 28.58409467 -14.98891449 16.33513451 C-14.3341978 15.49383641 -14.3341978 15.49383641 -13.66625452 14.63554239 C-11.63279013 12.01688436 -9.6231787 9.38660562 -7.64210892 6.72768593 C-6.95078999 5.82174564 -6.25947105 4.91580536 -5.54720306 3.98241234 C-4.65811721 2.78833417 -4.65811721 2.78833417 -3.75107002 1.57013321 C-2.00237274 0.00929832 -2.00237274 0.00929832 0 0 Z " fill="#DBC7C2" transform="translate(930.0023727416992,130.99070167541504)"/>
<path d="M0 0 C62.83666062 0 62.83666062 0 81 18 C99.26757349 37.41751068 99.89664112 61.44702783 100.53905678 86.58544922 C100.66814325 91.54555435 100.81539612 96.50514114 100.95898438 101.46484375 C101.1389106 107.72651367 101.31383391 113.98821304 101.47143555 120.25048828 C101.60040073 125.35589361 101.74639088 130.46058346 101.90288353 135.56521606 C101.95873772 137.48470489 102.00870394 139.40437639 102.05205727 141.32418823 C102.44541865 158.52744669 104.76685414 175.30297015 110 191.75 C110.23460937 192.53375 110.46921875 193.3175 110.7109375 194.125 C112.20801553 198.98647919 114.05787908 203.56167097 116.23046875 208.16113281 C117 210 117 210 117 212 C150 212 183 212 217 212 C213.34689529 216.2619555 209.87833647 220.24403962 205.93188477 224.16577148 C205.4643277 224.63186829 204.99677063 225.09796509 204.51504517 225.57818604 C203.512814 226.57665085 202.50943094 227.57396058 201.50497627 228.57018852 C199.90809151 230.15413865 198.31450136 231.74134093 196.72166443 233.32936096 C192.76651846 237.27124059 188.805925 241.20763189 184.84545898 245.14416504 C181.49044867 248.47931898 178.13758074 251.81659994 174.7874279 255.15663338 C173.23035519 256.70730493 171.67026294 258.25489178 170.11000061 259.80235291 C169.13901963 260.76969536 168.16818215 261.73718187 167.19750977 262.70483398 C166.36067154 263.53643539 165.52383331 264.3680368 164.66163635 265.22483826 C162.63376063 267.33920791 160.71382876 269.4697272 158.80606079 271.68798828 C154.39147313 276.77154402 149.65370461 281.51723598 144.90551758 286.28735352 C143.90589139 287.29490033 142.90644061 288.30262119 141.90715027 289.3105011 C138.6566242 292.58696976 135.40089073 295.85823665 132.14453125 299.12890625 C131.01936503 300.25943921 129.8942042 301.38997755 128.76904869 302.52052116 C124.09317608 307.21796065 119.41589209 311.91398719 114.73488331 316.60630894 C108.03900212 323.31848714 101.35180932 330.0390669 94.6761921 336.77140099 C89.97052221 341.51568379 85.25538806 346.25042521 80.53302306 350.97808975 C77.7154111 353.79936022 74.90216363 356.6246872 72.09894753 359.46026802 C69.46920031 362.11995186 66.82798711 364.76767275 64.1773243 367.40650749 C63.20545565 368.37815435 62.2378823 369.35411874 61.27490616 370.33457947 C59.96356474 371.66843268 58.63533398 372.9856197 57.30622864 374.30177307 C56.56682446 375.04448739 55.82742029 375.78720171 55.06560993 376.55242252 C53 378 53 378 51.01186371 377.98917389 C48.33505487 376.67306615 46.61357901 374.98505725 44.50395203 372.8714447 C43.608255 371.98131683 42.71255798 371.09118896 41.78971863 370.17408752 C40.80457486 369.17992089 39.81957922 368.18560745 38.8347168 367.19116211 C37.79194725 366.14918347 36.74852455 365.10785813 35.70449829 364.06713867 C32.86898394 361.23676322 30.04290687 358.39713181 27.21853232 355.5556457 C24.25736078 352.57943096 21.28807835 349.61132941 18.31977844 346.64222717 C13.33062809 341.64938201 8.34715011 336.65093312 3.36743164 331.64868164 C-3.00764427 325.24481611 -9.39187384 318.85015977 -15.77912617 312.45844173 C-21.2839693 306.94960283 -26.78455166 301.43651502 -32.28446555 295.92275548 C-34.04463084 294.15850842 -35.80536954 292.39483517 -37.5661869 290.63123894 C-40.34539474 287.84709883 -43.12191815 285.06030703 -45.8964653 282.27152252 C-46.91021024 281.25329441 -47.92476449 280.23587124 -48.9402256 279.21935463 C-53.96004623 274.19315056 -58.85644702 269.12854204 -63.48482227 263.73879147 C-65.64957281 261.2545616 -67.95619592 258.93183567 -70.29272461 256.60961914 C-70.77167175 256.13213226 -71.2506189 255.65464539 -71.74407959 255.16268921 C-72.76649339 254.14403236 -73.79005844 253.12652985 -74.81471062 252.11012459 C-76.43495166 250.50280846 -78.05190599 248.89224731 -79.66810608 247.28086853 C-83.08840705 243.87189626 -86.51267639 240.46692775 -89.9375 237.0625 C-93.93269631 233.09091103 -97.92624661 229.11769459 -101.91565132 225.1402874 C-103.51131902 223.55111574 -105.10995735 221.96497362 -106.70872498 220.37892151 C-107.67697487 219.41430043 -108.64508672 218.44954076 -109.61303711 217.48461914 C-110.46240341 216.64048965 -111.31176971 215.79636017 -112.18687439 214.926651 C-114 213 -114 213 -114 212 C-76.38 212 -38.76 212 0 212 C0 142.04 0 72.08 0 0 Z " fill="#1D2F42" transform="translate(878,498)"/>
<path d="M0 0 C5.79723535 4.77688176 11.10030377 9.98053273 16.3849926 15.3098278 C17.9353351 16.87311046 19.48893413 18.4330932 21.04335022 19.99232483 C24.90175602 23.86399364 28.75467146 27.74111104 32.60772705 31.61810303 C35.87241881 34.90265548 39.13924051 38.18506226 42.40881538 41.4647541 C43.92624986 42.98858712 45.44059761 44.51544012 46.95481873 46.04246521 C47.9019381 46.99322329 48.84920164 47.94383778 49.79663086 48.89428711 C51.01738564 50.12289711 51.01738564 50.12289711 52.26280212 51.37632751 C54.36242316 53.38886668 56.4799213 55.29415722 58.68225098 57.1882019 C63.76744713 61.60501917 68.51531762 66.34438585 73.28735352 71.09448242 C74.29490033 72.09410861 75.30262119 73.09355939 76.3105011 74.09284973 C79.58696976 77.3433758 82.85823665 80.59910927 86.12890625 83.85546875 C87.25943921 84.98063497 88.38997755 86.1057958 89.52052116 87.23095131 C94.21796065 91.90682392 98.91398719 96.58410791 103.60630894 101.26511669 C110.31848714 107.96099788 117.0390669 114.64819068 123.77140099 121.3238079 C128.51568379 126.02947779 133.25042521 130.74461194 137.97808975 135.46697694 C140.79936022 138.2845889 143.6246872 141.09783637 146.46026802 143.90105247 C149.11995186 146.53079969 151.76767275 149.17201289 154.40650749 151.8226757 C155.37815435 152.79454435 156.35411874 153.7621177 157.33457947 154.72509384 C158.66843268 156.03643526 159.9856197 157.36466602 161.30177307 158.69377136 C162.04448739 159.43317554 162.78720171 160.17257971 163.55242252 160.93439007 C165 163 165 163 164.98917389 164.98813629 C163.67306615 167.66494513 161.98505725 169.38642099 159.8714447 171.49604797 C158.98131683 172.391745 158.09118896 173.28744202 157.17408752 174.21028137 C156.17992089 175.19542514 155.18560745 176.18042078 154.19116211 177.1652832 C153.14918347 178.20805275 152.10785813 179.25147545 151.06713867 180.29550171 C148.23676322 183.13101606 145.39713181 185.95709313 142.5556457 188.78146768 C139.57943096 191.74263922 136.61132941 194.71192165 133.64222717 197.68022156 C128.64938201 202.66937191 123.65093312 207.65284989 118.64868164 212.63256836 C112.24481611 219.00764427 105.85015977 225.39187384 99.45844173 231.77912617 C93.94960283 237.2839693 88.43651502 242.78455166 82.92275548 248.28446555 C81.15850842 250.04463084 79.39483517 251.80536954 77.63123894 253.5661869 C74.84709883 256.34539474 72.06030703 259.12191815 69.27152252 261.8964653 C68.25329441 262.91021024 67.23587124 263.92476449 66.21935463 264.9402256 C61.18429868 269.96888686 56.11126968 274.87637883 50.71177006 279.51282215 C48.39467109 281.52590694 46.219536 283.66063976 44.05273438 285.83374023 C43.17242554 286.7141246 42.2921167 287.59450897 41.38513184 288.50157166 C40.46397583 289.42788895 39.54281982 290.35420624 38.59375 291.30859375 C37.61891355 292.2853001 36.64385251 293.26178234 35.6685791 294.23805237 C33.12813699 296.78227461 30.59071491 299.32948736 28.05395508 301.87738037 C25.45448873 304.48715882 22.85211506 307.09403482 20.25 309.70117188 C15.16385082 314.79797872 10.0808953 319.89795508 5 325 C-1.02819704 313.32378682 -1.41611929 298.53179114 -3.0625 285.6875 C-3.32039162 283.71411788 -3.57885191 281.74081 -3.83789062 279.76757812 C-4.77480717 272.60621062 -5.70341691 265.4438988 -6.58227539 258.27514648 C-6.67097397 257.55345779 -6.75967255 256.8317691 -6.85105896 256.08821106 C-7.08214325 254.19791426 -7.31001784 252.30722582 -7.53759766 250.41650391 C-10.65398396 227.3907859 -16.05431385 199.1948875 -34 183 C-34.50273438 182.49339844 -35.00546875 181.98679687 -35.5234375 181.46484375 C-52.56537072 165.1298903 -79.09789176 157.24472803 -101 150 C-101 149.34 -101 148.68 -101 148 C-100.41323486 147.86013672 -99.82646973 147.72027344 -99.22192383 147.57617188 C-78.74834382 142.63118915 -59.56030573 136.00280903 -41 126 C-39.94554687 125.44828125 -38.89109375 124.8965625 -37.8046875 124.328125 C-17.64659295 113.27538386 -1.15060974 95.02062773 6 73 C12.3232264 50.8432107 10.27592886 27.23568128 2 6 C1.32318977 4.00340982 0.65038501 2.00535378 0 0 Z " fill="#293D53" transform="translate(1137,339)"/>
<path d="M0 0 C0 109.89 0 219.78 0 333 C-4.29450318 329.31899727 -8.30456257 325.81748901 -12.25756836 321.84008789 C-12.73341873 321.36277725 -13.2092691 320.88546661 -13.69953918 320.39369202 C-14.71928431 319.37017943 -15.73787432 318.34551486 -16.75538445 317.31978035 C-18.37294208 315.68929336 -19.9937477 314.0620959 -21.6153717 312.43565369 C-25.64072524 308.39703061 -29.66059239 304.3529611 -33.68060303 300.309021 C-37.08621906 296.88355272 -40.49395931 293.4602237 -43.90445137 290.03960991 C-45.48836007 288.44929754 -47.069186 286.85596607 -48.64988708 285.26246643 C-49.63745261 284.27126255 -50.6251621 283.28020207 -51.61303711 282.28930664 C-52.46240341 281.43470352 -53.31176971 280.5801004 -54.18687439 279.69960022 C-56.31600345 277.65639346 -58.45953504 275.72181339 -60.69372559 273.80032349 C-65.77564151 269.38796632 -70.51915441 264.651795 -75.28735352 259.90551758 C-76.29490033 258.90589139 -77.30262119 257.90644061 -78.3105011 256.90715027 C-81.58696976 253.6566242 -84.85823665 250.40089073 -88.12890625 247.14453125 C-89.25943921 246.01936503 -90.38997755 244.8942042 -91.52052116 243.76904869 C-96.21796065 239.09317608 -100.91398719 234.41589209 -105.60630894 229.73488331 C-112.31848714 223.03900212 -119.0390669 216.35180932 -125.77140099 209.6761921 C-130.51568379 204.97052221 -135.25042521 200.25538806 -139.97808975 195.53302306 C-142.79936022 192.7154111 -145.6246872 189.90216363 -148.46026802 187.09894753 C-151.11995186 184.46920031 -153.76767275 181.82798711 -156.40650749 179.1773243 C-157.37815435 178.20545565 -158.35411874 177.2378823 -159.33457947 176.27490616 C-160.66843268 174.96356474 -161.9856197 173.63533398 -163.30177307 172.30622864 C-164.04448739 171.56682446 -164.78720171 170.82742029 -165.55242252 170.06560993 C-167 168 -167 168 -166.98917389 166.01186371 C-165.67306615 163.33505487 -163.98505725 161.61357901 -161.8714447 159.50395203 C-160.98131683 158.608255 -160.09118896 157.71255798 -159.17408752 156.78971863 C-158.17992089 155.80457486 -157.18560745 154.81957922 -156.19116211 153.8347168 C-155.14918347 152.79194725 -154.10785813 151.74852455 -153.06713867 150.70449829 C-150.23676322 147.86898394 -147.39713181 145.04290687 -144.5556457 142.21853232 C-141.57943096 139.25736078 -138.61132941 136.28807835 -135.64222717 133.31977844 C-130.64938201 128.33062809 -125.65093312 123.34715011 -120.64868164 118.36743164 C-114.24481611 111.99235573 -107.85015977 105.60812616 -101.45844173 99.22087383 C-95.94960283 93.7160307 -90.43651502 88.21544834 -84.92275548 82.71553445 C-83.15850842 80.95536916 -81.39483517 79.19463046 -79.63123894 77.4338131 C-76.84709883 74.65460526 -74.06030703 71.87808185 -71.27152252 69.1035347 C-70.25329441 68.08978976 -69.23587124 67.07523551 -68.21935463 66.0597744 C-63.19497021 61.04177111 -58.13214572 56.14749286 -52.74439144 51.5207777 C-50.22611331 49.32531794 -47.8724849 46.98435608 -45.51782227 44.61547852 C-45.03058182 44.1267778 -44.54334137 43.63807709 -44.04133606 43.13456726 C-43.00139898 42.09087196 -41.9626163 41.04602528 -40.92492867 40.00009346 C-39.28400516 38.34625005 -37.63984061 36.69568851 -35.99485779 35.04588318 C-32.51455739 31.55425124 -29.0382584 28.05865252 -25.5625 24.5625 C-21.50830414 20.48469852 -17.45248235 16.40854116 -13.39246941 12.33653069 C-11.77005957 10.70762425 -10.15067851 9.07574672 -8.53138733 7.44374084 C-7.54654328 6.45526795 -6.56156063 5.46693312 -5.57641602 4.47875977 C-4.71452164 3.61162857 -3.85262726 2.74449738 -2.96461487 1.85108948 C-1 0 -1 0 0 0 Z " fill="#293D54" transform="translate(724,337)"/>
<path d="M0 0 C2.67680884 1.31610774 4.3982847 3.00411664 6.50791168 5.11772919 C7.4036087 6.00785706 8.29930573 6.89798492 9.22214508 7.81508636 C10.20728884 8.809253 11.19228448 9.80356644 12.17714691 10.79801178 C13.21991646 11.83999042 14.26333916 12.88131576 15.30736542 13.92203522 C18.14287977 16.75241067 20.96895684 19.59204208 23.79333138 22.43352818 C26.75450292 25.40974292 29.72378536 28.37784448 32.69208527 31.34694672 C37.68123562 36.33979188 42.6647136 41.33824076 47.64443207 46.34049225 C54.01950798 52.74435778 60.40373755 59.13901412 66.79098988 65.53073215 C72.29583301 71.03957106 77.79641536 76.55265886 83.29632926 82.06641841 C85.05649455 83.83066547 86.81723325 85.59433872 88.57805061 87.35793495 C91.35725845 90.14207505 94.13378186 92.92886686 96.90832901 95.71765137 C97.92207395 96.73587948 98.9366282 97.75330265 99.95208931 98.76981926 C104.96621116 103.79031731 109.85672251 108.84907438 114.47988605 114.23260403 C116.74227203 116.82666211 119.14266427 119.23945905 121.57997894 121.67081451 C122.0881868 122.1791684 122.59639465 122.68752228 123.12000275 123.21128082 C124.76779023 124.8583825 126.41906928 126.50193302 128.07045746 128.14542389 C129.22652533 129.29962283 130.38236977 130.45404561 131.53800201 131.60868073 C134.55569701 134.62258797 137.57638458 137.63347792 140.59774017 140.6437149 C143.69009518 143.72577463 146.77956239 146.81072621 149.86928558 149.89542389 C155.91401483 155.92948193 161.96191377 161.96035032 168.01186371 167.98917389 C167.35186371 168.31917389 166.69186371 168.64917389 166.01186371 168.98917389 C163.2286618 167.59603864 160.53511589 166.13793238 157.82436371 164.61417389 C134.63920749 152.06821861 110.33371416 145.51823307 84.44936371 141.23917389 C83.2569809 141.040336 82.06459808 140.84149811 80.83608246 140.63663483 C56.26146448 136.79355482 31.73641988 136.65234329 6.92870831 136.58445692 C1.88925033 136.56862853 -3.15015079 136.54190334 -8.18956757 136.51642609 C-17.69442548 136.469982 -27.19929452 136.4330737 -36.70420653 136.39975321 C-47.54132863 136.36128609 -58.37839314 136.311942 -69.21546638 136.26176906 C-91.47298027 136.1589616 -113.73053077 136.06953787 -135.98813629 135.98917389 C-135.03725085 134.87198616 -134.085246 133.75575116 -133.13277435 132.63991547 C-132.60274779 132.01820937 -132.07272123 131.39650328 -131.52663326 130.7559576 C-129.60536008 128.54960021 -127.57720878 126.48214853 -125.49204254 124.43058014 C-124.68573395 123.63200592 -123.87942535 122.8334317 -123.04868317 122.01065826 C-121.38725537 120.37521057 -119.72579718 118.73979376 -118.06430817 117.10440826 C-116.85291168 115.90461334 -116.85291168 115.90461334 -115.61704254 114.68058014 C-114.53531769 113.61625763 -114.53531769 113.61625763 -113.43173981 112.53043365 C-111.52972895 110.55241077 -109.74707334 108.55610719 -107.96631622 106.47330475 C-103.48521276 101.34028026 -98.69909672 96.52945817 -93.89365387 91.70182037 C-92.89402768 90.69427356 -91.8945769 89.6865527 -90.89528656 88.67867279 C-87.6447605 85.40220413 -84.38902702 82.13093724 -81.13266754 78.86026764 C-80.00750132 77.72973468 -78.8823405 76.59919634 -77.75718498 75.46865273 C-73.08131237 70.77121324 -68.40402838 66.07518669 -63.7230196 61.38286495 C-57.02713841 54.67068675 -50.33994561 47.95010699 -43.6643284 41.2177729 C-38.9586585 36.4734901 -34.24352435 31.73874868 -29.52115935 27.01108414 C-26.7035474 24.18981367 -23.89029992 21.36448669 -21.08708382 18.52890587 C-18.45733661 15.86922203 -15.8161234 13.22150114 -13.16546059 10.5826664 C-12.19359194 9.61101954 -11.22601859 8.63505514 -10.26304245 7.65459442 C-8.95170103 6.32074121 -7.62347027 5.00355419 -6.29436493 3.68740082 C-5.55496076 2.9446865 -4.81555658 2.20197218 -4.05374622 1.43675137 C-1.98813629 -0.01082611 -1.98813629 -0.01082611 0 0 Z " fill="#39506A" transform="translate(929.9881362915039,131.01082611083984)"/>
<path d="M0 0 C76.83035714 0 76.83035714 0 99.75 21.25 C116.69557505 39.41176465 118.84729817 61.70181823 118.33984375 85.36328125 C117.64522568 102.95615248 111.15116632 119.94813099 98.68359375 132.60546875 C71.20260791 157.1263484 34.68524764 153 0 153 C0 102.51 0 52.02 0 0 Z " fill="#30455E" transform="translate(878,308)"/>
</svg>
